<?xml version="1.0" encoding="UTF-8"?>
<svg width="56px" height="56px" viewBox="0 0 56 56" version="1.1" xmlns="http://www.w3.org/2000/svg" xmlns:xlink="http://www.w3.org/1999/xlink">
    <!-- Generator: sketchtool 54.1 (76490) - https://sketchapp.com -->
    <title>1BE48C4C-657D-49C5-8265-BEC9A7D0EB9E</title>
    <desc>Created with sketchtool.</desc>
    <defs>
        <linearGradient x1="50%" y1="0%" x2="50%" y2="100%" id="linearGradient-1">
            <stop stop-color="#19E58C" offset="0%"></stop>
            <stop stop-color="#1E3BF1" offset="100%"></stop>
        </linearGradient>
    </defs>
    <g id="Page-1" stroke="none" stroke-width="1" fill="none" fill-rule="evenodd">
        <g id="PF-training-Page-New" transform="translate(-466.000000, -1092.000000)">
            <g id="Group-14" transform="translate(0.000000, 768.000000)">
                <g id="Group-128" transform="translate(150.000000, 300.000000)">
                    <g id="Group-120" transform="translate(292.000000, 0.000000)">
                        <g id="Data-Science" transform="translate(24.000000, 24.000000)">
                            <circle id="Oval" fill="url(#linearGradient-1)" cx="28" cy="28" r="28"></circle>
                            <g id="Group-32" transform="translate(16.000000, 16.000000)" fill="#FFFFFF" fill-rule="nonzero">
                                <path d="M15.5912056,7 L8.40878802,7 L8.40878802,8.38095238 L7.69999681,8.38095238 L7.69999681,9.80952381 L8.40878802,9.80952381 L8.40878802,11.2857143 L7.69999681,11.2857143 L7.69999681,12.7142857 L8.40878802,12.7142857 L8.40878802,14.1904762 L7.69999681,14.1904762 L7.69999681,15.6190476 L8.40878802,15.6190476 L8.40878802,17 L15.5912056,17 L15.5912056,15.6190476 L16.2999968,15.6190476 L16.2999968,14.1904762 L15.5912056,14.1904762 L15.5912056,12.7142857 L16.2999968,12.7142857 L16.2999968,11.2857143 L15.5912056,11.2857143 L15.5912056,9.80952381 L16.2999968,9.80952381 L16.2999968,8.38095238 L15.5912056,8.38095238 L15.5912056,7 Z M14.1736232,12.7142857 L9.82637044,12.7142857 L9.82637044,11.2857143 L14.1736232,11.2857143 L14.1736232,12.7142857 Z M14.1736232,15.5714286 L9.82637044,15.5714286 L9.82637044,14.1428571 L14.1736232,14.1428571 L14.1736232,15.5714286 Z M9.82637044,9.85714286 L9.82637044,8.42857143 L14.1736232,8.42857143 L14.1736232,9.85714286 L9.82637044,9.85714286 Z" id="Shape"></path>
                                <path d="M23.6010163,14.6909822 C23.366275,13.7974272 23.0333892,12.8938015 22.6129789,11.9945703 C24.0648225,8.8852555 24.4218783,5.82244955 23.4446442,3.53308125 C23.7874177,3.15789806 23.9967073,2.65911858 23.9967073,2.11218243 C23.9967073,0.949279281 23.0507842,0.00335615431 21.887881,0.00335615431 C21.3409449,0.00335615431 20.8419823,0.212645773 20.4667991,0.555419301 C18.1776139,-0.421814834 15.114808,-0.0647590513 12.0054932,1.38708459 C11.106262,0.966674317 10.2024531,0.633788463 9.30908131,0.398864072 C6.14007411,-0.433716681 3.45611346,0.0465691033 1.75140107,1.75128145 C0.0465056288,3.45617693 -0.433780155,6.14013759 0.398983738,9.3089617 C0.633724988,10.2026997 0.966610843,11.1063255 1.38702111,12.0055567 C-0.0648225259,15.1148714 -0.421878308,18.1774943 0.555355827,20.4668626 C0.212582298,20.8420458 0.00329270318,21.3410084 0.00329270318,21.8879445 C0.00329270318,23.0506646 0.949215807,23.9967708 2.11211896,23.9967708 C2.65923825,23.9967708 3.15820077,23.7872981 3.53338396,23.4443414 C4.40130412,23.814947 5.38000314,23.9942073 6.43084567,23.9942073 C8.15148826,23.9942073 10.0640254,23.5144708 11.9945068,22.6130424 C12.893738,23.0334526 13.7975469,23.3663385 14.6909187,23.6010797 C15.7067881,23.8680476 16.6726697,24.0000667 17.5726333,24.0000667 C19.4798604,24.0000667 21.0904565,23.4069879 22.2485989,22.2486624 C23.9534944,20.54395 24.4337802,17.8598062 23.6010163,14.6909822 L23.6010163,14.6909822 Z M21.887881,1.40924034 C22.2755155,1.40924034 22.5908231,1.72454802 22.5908231,2.11218243 C22.5908231,2.49963371 22.2755155,2.81494139 21.887881,2.81494139 C21.5002467,2.81494139 21.1849389,2.49963371 21.1849389,2.11218243 C21.1849389,1.72454802 21.5002467,1.40924034 21.887881,1.40924034 L21.887881,1.40924034 Z M14.215943,2.00781227 C16.3729259,1.28491168 18.3290422,1.21752885 19.8021261,1.8023679 C19.7871114,1.90362524 19.7790548,2.00689675 19.7790548,2.11218243 C19.7790548,3.27490245 20.725161,4.22100867 21.887881,4.22100867 C21.9931667,4.22100867 22.0964382,4.21295203 22.1976956,4.19812049 C22.7825346,5.67102127 22.7149687,7.62695439 21.9922512,9.78430362 C21.924136,9.98791695 21.8497951,10.1920796 21.7706935,10.3967916 C20.829165,8.79535068 19.618105,7.23748899 18.1904313,5.80963214 C16.7627576,4.38195843 15.2047128,3.17089851 13.603455,2.22936997 C13.8079839,2.15026838 14.0123297,2.07592752 14.215943,2.00781227 Z M21.0487084,11.995852 C20.1123068,13.8102446 18.7908343,15.601749 17.1963515,17.196415 C15.6016856,18.7908978 13.809998,20.1123703 11.9957886,21.0487719 C10.1916499,20.1189621 8.41369536,18.8064618 6.80364851,17.196415 C5.1936017,15.586185 3.88110135,13.8084136 2.95129156,12.0040918 C3.88769315,10.1898823 5.20898257,8.39837792 6.80364851,6.80371198 C8.39831445,5.20922913 10.1898188,3.88775663 12.0042114,2.95135503 C13.8083501,3.88116483 15.5863046,5.19366518 17.1963515,6.80371198 C18.8063983,8.41375883 20.1188986,10.1915303 21.0487084,11.995852 Z M1.75854219,8.95172282 C1.0581636,6.28625581 1.40862754,4.08221471 2.74548091,2.74554438 C3.63207785,1.8587644 4.90008355,1.40612756 6.4315781,1.40612756 C7.20886101,1.40612756 8.05425921,1.52294886 8.95165934,1.75860567 C9.43286064,1.88513159 9.91772405,2.04351785 10.4038692,2.23065172 C8.81982337,3.15991218 7.25610225,4.36309855 5.80956866,5.80963214 C4.36303508,7.25616573 3.15984871,8.81988685 2.23058824,10.4039327 C2.04345438,9.91778753 1.88506812,9.43292412 1.75854219,8.95172282 Z M2.11211896,22.5908866 C1.72448454,22.5908866 1.40917687,22.2755789 1.40917687,21.8879445 C1.40917687,21.5003101 1.72448454,21.1850024 2.11211896,21.1850024 C2.49975333,21.1850024 2.81506105,21.5003101 2.81506105,21.8879445 C2.81506105,22.2755789 2.49957024,22.5908866 2.11211896,22.5908866 Z M9.784057,21.9923147 C7.62689091,22.7150322 5.6709578,22.7825981 4.19787392,22.1977591 C4.21288855,22.0965017 4.22094519,21.9932302 4.22094519,21.8879445 C4.22094519,20.7252245 3.27483897,19.7791183 2.11211896,19.7791183 C2.00683328,19.7791183 1.90337867,19.7871749 1.80230442,19.8021896 C1.21746538,18.3291057 1.28484821,16.3731726 2.0075657,14.2160065 C2.07586404,14.01221 2.15020491,13.8080473 2.22930649,13.6033354 C3.17083504,15.2047763 4.38189496,16.762638 5.80956866,18.1904948 C7.23724237,19.6181685 8.79510412,20.8292284 10.396545,21.770757 C10.1920161,21.8498586 9.98767034,21.9241994 9.784057,21.9923147 L9.784057,21.9923147 Z M21.2545191,21.2545826 C19.9178488,22.5912528 17.7138077,22.9418999 15.0483407,22.2415213 C14.5673224,22.1149954 14.082459,21.9567922 13.5966801,21.7696584 C15.1805428,20.8403979 16.7440808,19.6368453 18.1904313,18.1904948 C19.6369649,16.7439612 20.8401513,15.1802401 21.7694118,13.5961943 C21.9565456,14.0821563 22.1149319,14.5672028 22.2414578,15.048221 C22.9418364,17.7138711 22.5913725,19.9179122 21.2545191,21.2545826 L21.2545191,21.2545826 Z" id="Shape"></path>
                            </g>
                        </g>
                    </g>
                </g>
            </g>
        </g>
    </g>
</svg>