<?xml version="1.0" encoding="UTF-8"?>
<svg width="56px" height="56px" viewBox="0 0 56 56" version="1.1" xmlns="http://www.w3.org/2000/svg" xmlns:xlink="http://www.w3.org/1999/xlink">
    <!-- Generator: Sketch 54.1 (76490) - https://sketchapp.com -->
    <title>Design</title>
    <desc>Created with Sketch.</desc>
    <defs>
        <linearGradient x1="50%" y1="0%" x2="50%" y2="100%" id="linearGradient-1">
            <stop stop-color="#19E58C" offset="0%"></stop>
            <stop stop-color="#1E3BF1" offset="100%"></stop>
        </linearGradient>
    </defs>
    <g id="Page-1" stroke="none" stroke-width="1" fill="none" fill-rule="evenodd">
        <g id="PF-training-Page-New" transform="translate(-398.000000, -1092.000000)">
            <g id="Group-98" transform="translate(-1086.000000, 1068.000000)">
                <g id="Group-96" transform="translate(1168.000000, 0.000000)">
                    <g id="Group-94" transform="translate(292.000000, 0.000000)">
                        <g id="Design" transform="translate(24.000000, 24.000000)">
                            <circle id="Oval" fill="url(#linearGradient-1)" cx="28" cy="28" r="28"></circle>
                            <g id="Group-80" transform="translate(12.000000, 12.000000)" fill="#FFFFFF" fill-rule="nonzero">
                                <path d="M31.0625,0 L27.3125,0 C26.79475,0 26.375,0.41975 26.375,0.9375 L26.375,1.875 L18.65125,1.875 C18.26425,0.783875 17.2221875,0 16,0 C14.7778125,0 13.73575,0.783875 13.34875,1.875 L5.625,1.875 L5.625,0.9375 C5.625,0.41975 5.20525,0 4.6875,0 L0.9375,0 C0.41975,0 0,0.41975 0,0.9375 L0,4.6875 C0,5.20525 0.41975,5.625 0.9375,5.625 L4.6875,5.625 C5.20525,5.625 5.625,5.20525 5.625,4.6875 L5.625,3.7375 L9.5235625,3.7375 C6.1413125,5.879625 4.0853125,9.4984375 3.838,13.340125 C2.733625,13.719875 1.9375,14.768375 1.9375,16 C1.9375,17.5508125 3.1991875,18.8125 4.75,18.8125 C6.3008125,18.8125 7.5625,17.5508125 7.5625,16 C7.5625,14.78875 6.7928125,13.753875 5.716875,13.35875 C6.04975,8.9433125 9.22925,5.140375 13.481,4.061375 C13.941875,4.987125 14.8975625,5.625 16,5.625 C17.1024375,5.625 18.058125,4.987125 18.519,4.0614375 C22.7708125,5.1404375 25.95025,8.943375 26.283125,13.3588125 C25.2071875,13.753875 24.4375,14.78875 24.4375,16 C24.4375,17.5508125 25.6991875,18.8125 27.25,18.8125 C28.8008125,18.8125 30.0625,17.5508125 30.0625,16 C30.0625,14.768375 29.266375,13.719875 28.162,13.340125 C27.9141875,9.49075 25.8520625,5.8879375 22.4764375,3.75 L26.375,3.75 L26.375,4.6875 C26.375,5.20525 26.79475,5.625 27.3125,5.625 L31.0625,5.625 C31.58025,5.625 32,5.20525 32,4.6875 L32,0.9375 C32,0.41975 31.58025,0 31.0625,0 Z M3.75,3.75 L1.875,3.75 L1.875,1.875 L3.75,1.875 L3.75,3.75 Z M4.75,16.9375 C4.2330625,16.9375 3.8125,16.5169375 3.8125,16 C3.8125,15.4830625 4.2330625,15.0625 4.75,15.0625 C5.2669375,15.0625 5.6875,15.4830625 5.6875,16 C5.6875,16.5169375 5.2669375,16.9375 4.75,16.9375 Z M16,3.75 C15.4830625,3.75 15.0625,3.3294375 15.0625,2.8125 C15.0625,2.2955625 15.4830625,1.875 16,1.875 C16.5169375,1.875 16.9375,2.2955625 16.9375,2.8125 C16.9375,3.3294375 16.5169375,3.75 16,3.75 Z M27.25,15.0625 C27.7669375,15.0625 28.1875,15.4830625 28.1875,16 C28.1875,16.5169375 27.7669375,16.9375 27.25,16.9375 C26.7330625,16.9375 26.3125,16.5169375 26.3125,16 C26.3125,15.4830625 26.7330625,15.0625 27.25,15.0625 Z M30.125,3.75 L28.25,3.75 L28.25,1.875 L30.125,1.875 L30.125,3.75 Z" id="Shape"></path>
                                <path d="M24.28,19.2299375 L16.78,7.98 C16.77975,7.979625 16.7794375,7.97925 16.7791875,7.9788125 C16.7765,7.9748125 16.7735625,7.971 16.7708125,7.9670625 C16.7579375,7.948375 16.744375,7.930375 16.73025,7.9128125 C16.3351875,7.4219375 15.5829375,7.4550625 15.2291875,7.9670625 C15.2264375,7.971 15.2235,7.9748125 15.2208125,7.9788125 C15.2205625,7.97925 15.22025,7.9795625 15.22,7.98 L7.72,19.23 C7.4720625,19.6018125 7.521125,20.0969375 7.837125,20.4129375 C9.7075625,22.283375 10.8980625,24.728375 11.222375,27.34425 C11.0768125,27.4619375 10.93625,27.5879375 10.803,27.7243125 C9.9224375,28.6250625 9.4375,29.810625 9.4375,31.0625 C9.4375,31.58025 9.85725,32 10.375,32 L21.625,32 C22.14275,32 22.5625,31.58025 22.5625,31.0625 C22.5625,29.810625 22.0775625,28.6250625 21.1970625,27.72425 C21.06375,27.587875 20.92325,27.461875 20.777625,27.3441875 C21.101875,24.7281875 22.292375,22.2831875 24.1628125,20.4129375 C24.478875,20.0969375 24.5279375,19.60175 24.28,19.2299375 Z M16,18.8125 C16.5169375,18.8125 16.9375,19.2330625 16.9375,19.75 C16.9375,20.2669375 16.5169375,20.6875 16,20.6875 C15.4830625,20.6875 15.0625,20.2669375 15.0625,19.75 C15.0625,19.2330625 15.4830625,18.8125 16,18.8125 Z M11.472375,30.125 C11.8624375,29.0104375 12.9198125,28.1875 14.125,28.1875 L17.875,28.1875 C19.0801875,28.1875 20.1375625,29.0104375 20.527625,30.125 L11.472375,30.125 Z M19.0153125,26.4551875 C18.6465625,26.3610625 18.2643125,26.3125 17.875,26.3125 L14.125,26.3125 C13.7356875,26.3125 13.3534375,26.3610625 12.9846875,26.45525 C12.5459375,23.9284375 11.4065,21.5664375 9.6940625,19.6490625 L15.0625,11.596375 L15.0625,17.0988125 C13.9713125,17.4858125 13.1875,18.527875 13.1875,19.7500625 C13.1875,21.300875 14.4491875,22.5625625 16,22.5625625 C17.5508125,22.5625625 18.8125,21.300875 18.8125,19.7500625 C18.8125,18.527875 18.0286875,17.4858125 16.9375,17.0988125 L16.9375,11.596375 L22.306,19.6490625 C20.5935,21.56625 19.454,23.9283125 19.0153125,26.4551875 Z" id="Shape"></path>
                            </g>
                        </g>
                    </g>
                </g>
            </g>
        </g>
    </g>
</svg>