<?xml version="1.0" encoding="UTF-8"?>
<svg width="56px" height="56px" viewBox="0 0 56 56" version="1.1" xmlns="http://www.w3.org/2000/svg" xmlns:xlink="http://www.w3.org/1999/xlink">
    <!-- Generator: sketchtool 54.1 (76490) - https://sketchapp.com -->
    <title>1875EBB9-1106-48AB-80CA-43279569A049</title>
    <desc>Created with sketchtool.</desc>
    <defs>
        <linearGradient x1="50%" y1="0%" x2="50%" y2="100%" id="linearGradient-1">
            <stop stop-color="#19E58C" offset="0%"></stop>
            <stop stop-color="#1E3BF1" offset="100%"></stop>
        </linearGradient>
    </defs>
    <g id="Page-1" stroke="none" stroke-width="1" fill="none" fill-rule="evenodd">
        <g id="PF-training-Page-New" transform="translate(-758.000000, -1092.000000)">
            <g id="Group-14" transform="translate(0.000000, 768.000000)">
                <g id="Group-128" transform="translate(150.000000, 300.000000)">
                    <g id="Group-121" transform="translate(584.000000, 0.000000)">
                        <g id="Deve" transform="translate(24.000000, 24.000000)">
                            <circle id="Oval" fill="url(#linearGradient-1)" cx="28" cy="28" r="28"></circle>
                            <g id="Group-78" transform="translate(12.000000, 14.000000)" fill="#FFFFFF" fill-rule="nonzero">
                                <path d="M31.0625,0 L0.9375,0 C0.41975,0 0,0.41975 0,0.9375 L0,22.1875 C0,22.70525 0.41975,23.125 0.9375,23.125 L12.25,23.125 L12.25,26.875 L11.3125,26.875 C10.79475,26.875 10.375,27.29475 10.375,27.8125 C10.375,28.33025 10.79475,28.75 11.3125,28.75 L20.6875,28.75 C21.20525,28.75 21.625,28.33025 21.625,27.8125 C21.625,27.29475 21.20525,26.875 20.6875,26.875 L19.75,26.875 L19.75,23.125 L31.0625,23.125 C31.58025,23.125 32,22.70525 32,22.1875 L32,0.9375 C32,0.41975 31.58025,0 31.0625,0 Z M30.125,1.875 L30.125,16.875 L1.875,16.875 L1.875,1.875 L30.125,1.875 Z M17.875,26.875 L14.125,26.875 L14.125,23.125 L17.875,23.125 L17.875,26.875 Z M1.875,21.25 L1.875,18.75 L30.125,18.75 L30.125,21.25 L1.875,21.25 Z" id="Shape"></path>
                                <path d="M13.9613125,14.50075 C14.0749375,14.546 14.1921875,14.567375 14.3075,14.567375 C14.68025,14.567375 15.03275,14.3435625 15.178875,13.976125 L18.56325,5.4669375 C18.754625,4.985875 18.5196875,4.4406875 18.0385625,4.249375 C17.5574375,4.0579375 17.0123125,4.2929375 16.821,4.7740625 L13.436625,13.2833125 C13.2453125,13.7643125 13.48025,14.309375 13.9613125,14.50075 L13.9613125,14.50075 Z" id="Path"></path>
                                <path d="M20.9723125,14.032875 C21.12025,14.118625 21.281875,14.1593125 21.4413125,14.1593125 C21.764875,14.1593125 22.079625,13.991625 22.2534375,13.6915625 L24.526125,9.768 C24.6974375,9.47225 24.69425,9.10675 24.5178125,8.8140625 L22.245125,5.044375 C21.9778125,4.6009375 21.4016875,4.45825 20.9581875,4.7255 C20.51475,4.9928125 20.372,5.569 20.6393125,6.0124375 L22.6259375,9.3076875 L20.631,12.7518125 C20.3714375,13.19975 20.52425,13.773375 20.9723125,14.032875 L20.9723125,14.032875 Z" id="Path"></path>
                                <path d="M9.7465625,13.6915625 C9.9204375,13.9916875 10.235125,14.1593125 10.5586875,14.1593125 C10.718125,14.1593125 10.8798125,14.118625 11.0276875,14.032875 C11.4756875,13.773375 11.6285,13.19975 11.369,12.75175 L9.3740625,9.307625 L11.3606875,6.012375 C11.628,5.5689375 11.48525,4.9928125 11.0418125,4.7254375 C10.5983125,4.4580625 10.0221875,4.600875 9.754875,5.0443125 L7.4821875,8.814 C7.30575,9.1066875 7.3025625,9.4721875 7.473875,9.7679375 L9.7465625,13.6915625 Z" id="Path"></path>
                            </g>
                        </g>
                    </g>
                </g>
            </g>
        </g>
    </g>
</svg>