<?xml version="1.0" encoding="UTF-8"?>
<svg width="56px" height="56px" viewBox="0 0 56 56" version="1.1" xmlns="http://www.w3.org/2000/svg" xmlns:xlink="http://www.w3.org/1999/xlink">
    <!-- Generator: Sketch 54.1 (76490) - https://sketchapp.com -->
    <title>Devops</title>
    <desc>Created with Sketch.</desc>
    <defs>
        <linearGradient x1="50%" y1="0%" x2="50%" y2="100%" id="linearGradient-1">
            <stop stop-color="#19E58C" offset="0%"></stop>
            <stop stop-color="#1E3BF1" offset="100%"></stop>
        </linearGradient>
    </defs>
    <g id="Page-1" stroke="none" stroke-width="1" fill="none" fill-rule="evenodd">
        <g id="PF-training-Page-New" transform="translate(-690.000000, -1092.000000)">
            <g id="Group-98" transform="translate(-1086.000000, 1068.000000)">
                <g id="Group-96" transform="translate(1168.000000, 0.000000)">
                    <g id="Group-93" transform="translate(584.000000, 0.000000)">
                        <g id="Devops" transform="translate(24.000000, 24.000000)">
                            <circle id="Oval" fill="url(#linearGradient-1)" cx="28" cy="28" r="28"></circle>
                            <g id="Group-79" transform="translate(12.000000, 19.000000)" fill="#FFFFFF" fill-rule="nonzero">
                                <path d="M23.53125,0.805870155 C22.24375,0.805870155 20.983,1.09974516 19.84125,1.65230766 L19.9245,1.07043266 C19.997875,0.557870155 19.6418125,0.0829326554 19.1291875,0.00962015543 C18.6160625,-0.0639423446 18.1416875,0.292370155 18.068375,0.804870155 L17.6925,3.43187016 C17.6185625,3.89855766 17.943625,4.37549516 18.4050625,4.47705766 L20.9659375,5.08168266 C21.0384375,5.09880766 21.1108125,5.10699516 21.1821875,5.10699516 C21.6070625,5.10699516 21.9919375,4.81618266 22.0938125,4.38468266 C22.21275,3.88074516 21.90075,3.37580766 21.396875,3.25687016 L21.0370625,3.17193266 C21.822625,2.85099516 22.669,2.68093266 23.5311875,2.68093266 C27.167,2.68093266 30.1249375,5.63887016 30.1249375,9.27468266 C30.1249375,12.9104952 27.167,15.8684327 23.5311875,15.8684327 C19.895375,15.8684327 16.9375,12.9104327 16.9375,9.27462016 C16.9375,4.60493266 13.1384375,0.805870155 8.46875,0.805870155 C3.7990625,0.805870155 0,4.60493266 0,9.27462016 C0,13.9443077 3.7990625,17.7433702 8.46875,17.7433702 C9.75625,17.7433702 11.017,17.4494952 12.15875,16.8969327 L12.0755,17.4788077 C12.002125,17.9913702 12.3581875,18.4663077 12.8708125,18.5396202 C12.915875,18.5461202 12.9605625,18.5491827 13.00475,18.5491827 C13.4636875,18.5491827 13.86475,18.2118702 13.931625,17.7443702 L14.3075,15.1173702 C14.3814375,14.6506827 14.056375,14.1737452 13.5949375,14.0721827 L11.0340625,13.4675577 C10.5298125,13.3484327 10.025125,13.6606202 9.9061875,14.1645577 C9.78725,14.6684952 10.09925,15.1734327 10.603125,15.2923702 L10.9629375,15.3773077 C10.177375,15.6982452 9.331,15.8683077 8.46875,15.8683077 C4.8329375,15.8683702 1.875,12.9104327 1.875,9.27462016 C1.875,5.63880766 4.8329375,2.68087016 8.46875,2.68087016 C12.1045625,2.68087016 15.0625,5.63880766 15.0625,9.27462016 C15.0625,13.9443077 18.8615625,17.7433702 23.53125,17.7433702 C28.2009375,17.7433702 32,13.9443077 32,9.27462016 C32,4.60493266 28.2009375,0.805870155 23.53125,0.805870155 L23.53125,0.805870155 Z" id="Path"></path>
                                <path d="M11.783375,9.71212016 C12.301125,9.71212016 12.720875,9.29237016 12.720875,8.77462016 C12.720875,8.25687016 12.301125,7.83712016 11.783375,7.83712016 L11.3923125,7.83712016 C11.3403125,7.67543266 11.2750625,7.51980766 11.1981875,7.37099516 L11.4754375,7.09374516 C11.8415625,6.72762016 11.8415625,6.13405766 11.4754375,5.76793266 C11.109375,5.40180766 10.51575,5.40180766 10.149625,5.76793266 L9.872375,6.04518266 C9.7235625,5.96837016 9.5679375,5.90305766 9.40625,5.85105766 L9.40625,5.45999516 C9.40625,4.94224516 8.9865,4.52249516 8.46875,4.52249516 C7.951,4.52249516 7.53125,4.94224516 7.53125,5.45999516 L7.53125,5.85105766 C7.3695625,5.90305766 7.2139375,5.96830766 7.065125,6.04518266 L6.787875,5.76793266 C6.4218125,5.40180766 5.8281875,5.40180766 5.4620625,5.76793266 C5.0959375,6.13405766 5.0959375,6.72762016 5.4620625,7.09374516 L5.7393125,7.37099516 C5.6624375,7.51980766 5.5971875,7.67549516 5.5451875,7.83712016 L5.154125,7.83712016 C4.636375,7.83712016 4.216625,8.25687016 4.216625,8.77462016 C4.216625,9.29237016 4.636375,9.71212016 5.154125,9.71212016 L5.5451875,9.71212016 C5.5971875,9.87380766 5.6624375,10.0294327 5.7393125,10.1782452 L5.4620625,10.4554952 C5.0959375,10.8216202 5.0959375,11.4151827 5.4620625,11.7813077 C5.645125,11.9643702 5.8850625,12.0559327 6.1249375,12.0559327 C6.3648125,12.0559327 6.6048125,11.9644327 6.7878125,11.7813077 L7.0650625,11.5040577 C7.213875,11.5808702 7.3695,11.6461827 7.5311875,11.6981827 L7.5311875,12.0892452 C7.5311875,12.6069952 7.9509375,13.0267452 8.4686875,13.0267452 C8.9864375,13.0267452 9.4061875,12.6069952 9.4061875,12.0892452 L9.4061875,11.6981827 C9.567875,11.6461827 9.7235,11.5809327 9.8723125,11.5040577 L10.1495625,11.7813077 C10.332625,11.9643702 10.5725625,12.0559327 10.8124375,12.0559327 C11.0523125,12.0559327 11.2923125,11.9644327 11.4753125,11.7813077 C11.8414375,11.4151827 11.8414375,10.8216202 11.4753125,10.4554952 L11.1980625,10.1782452 C11.2749375,10.0294327 11.3401875,9.87374516 11.3921875,9.71212016 L11.783375,9.71212016 Z M7.27325,8.77462016 C7.27325,8.11543266 7.8095625,7.57918266 8.46875,7.57918266 C9.1279375,7.57918266 9.66425,8.11549516 9.66425,8.77462016 C9.66425,9.43374516 9.1279375,9.97005766 8.46875,9.97005766 C7.8095625,9.97005766 7.27325,9.43380766 7.27325,8.77462016 L7.27325,8.77462016 Z" id="Shape"></path>
                                <path d="M20.216625,8.77349516 C19.698875,8.77349516 19.279125,9.19324516 19.279125,9.71099516 C19.279125,10.2287452 19.698875,10.6484952 20.216625,10.6484952 L20.6076875,10.6484952 C20.6596875,10.8101827 20.7249375,10.9658077 20.8018125,11.1146202 L20.5245625,11.3918702 C20.1584375,11.7579952 20.1584375,12.3515577 20.5245625,12.7176827 C20.707625,12.9007452 20.9475625,12.9923077 21.1874375,12.9923077 C21.4273125,12.9923077 21.6673125,12.9008077 21.8503125,12.7176827 L22.1275625,12.4404327 C22.276375,12.5173077 22.4320625,12.5826202 22.59375,12.6345577 L22.59375,13.0256202 C22.59375,13.5433702 23.0135,13.9631202 23.53125,13.9631202 C24.049,13.9631202 24.46875,13.5433702 24.46875,13.0256202 L24.46875,12.6345577 C24.6304375,12.5825577 24.7860625,12.5173077 24.9349375,12.4404327 L25.2121875,12.7176827 C25.39525,12.9007452 25.6351875,12.9923077 25.8750625,12.9923077 C26.1149375,12.9923077 26.3549375,12.9008077 26.5379375,12.7176827 C26.9040625,12.3515577 26.9040625,11.7579952 26.5379375,11.3918702 L26.2606875,11.1146202 C26.3375,10.9658077 26.4028125,10.8101202 26.4548125,10.6484952 L26.845875,10.6484952 C27.363625,10.6484952 27.783375,10.2287452 27.783375,9.71099516 C27.783375,9.19324516 27.363625,8.77349516 26.845875,8.77349516 L26.4548125,8.77349516 C26.4028125,8.61180766 26.3375625,8.45618266 26.2606875,8.30737016 L26.5379375,8.03012016 C26.9040625,7.66399516 26.9040625,7.07043266 26.5379375,6.70430766 C26.171875,6.33818266 25.57825,6.33818266 25.212125,6.70430766 L24.934875,6.98155766 C24.7860625,6.90468266 24.630375,6.83937016 24.4686875,6.78743266 L24.4686875,6.39637016 C24.4686875,5.87862016 24.0489375,5.45887016 23.5311875,5.45887016 C23.0134375,5.45887016 22.5936875,5.87862016 22.5936875,6.39637016 L22.5936875,6.78743266 C22.432,6.83943266 22.276375,6.90468266 22.1275,6.98155766 L21.85025,6.70430766 C21.4841875,6.33818266 20.8905625,6.33818266 20.5244375,6.70430766 C20.1583125,7.07043266 20.1583125,7.66399516 20.5244375,8.03012016 L20.8016875,8.30737016 C20.7248125,8.45618266 20.6595,8.61187016 20.6075625,8.77349516 L20.216625,8.77349516 Z M24.72675,9.71099516 C24.72675,10.3701827 24.1904375,10.9064327 23.53125,10.9064327 C22.8720625,10.9064327 22.33575,10.3701202 22.33575,9.71099516 C22.33575,9.05180766 22.8720625,8.51549516 23.53125,8.51549516 C24.1904375,8.51549516 24.72675,9.05174516 24.72675,9.71099516 Z" id="Shape"></path>
                            </g>
                        </g>
                    </g>
                </g>
            </g>
        </g>
    </g>
</svg>