<?xml version="1.0" encoding="UTF-8"?>
<svg width="56px" height="56px" viewBox="0 0 56 56" version="1.1" xmlns="http://www.w3.org/2000/svg" xmlns:xlink="http://www.w3.org/1999/xlink">
    <!-- Generator: sketchtool 54.1 (76490) - https://sketchapp.com -->
    <title>63A2A360-5998-4860-8EFD-A39FE7CE6D63</title>
    <desc>Created with sketchtool.</desc>
    <defs>
        <linearGradient x1="50%" y1="0%" x2="50%" y2="100%" id="linearGradient-1">
            <stop stop-color="#19E58C" offset="0%"></stop>
            <stop stop-color="#1E3BF1" offset="100%"></stop>
        </linearGradient>
    </defs>
    <g id="Page-1" stroke="none" stroke-width="1" fill="none" fill-rule="evenodd">
        <g id="PF-training-Page-New" transform="translate(-1342.000000, -1092.000000)">
            <g id="Group-14" transform="translate(0.000000, 768.000000)">
                <g id="Group-128" transform="translate(150.000000, 300.000000)">
                    <g id="Group-123" transform="translate(1168.000000, 0.000000)">
                        <g id="Ethical-Hacking" transform="translate(24.000000, 24.000000)">
                            <circle id="Oval" fill="url(#linearGradient-1)" cx="28" cy="28" r="28"></circle>
                            <g id="Group-77" transform="translate(12.000000, 13.000000)" fill="#FFFFFF" fill-rule="nonzero">
                                <path d="M28.5625,0 L3.4375,0 C1.5420625,0 0,1.5420625 0,3.4375 L0,23 C0,24.8954375 1.5420625,26.4375 3.4375,26.4375 L12.0625,26.4375 L12.0625,28.9375 L8.5625,28.9375 C8.04475,28.9375 7.625,29.35725 7.625,29.875 C7.625,30.39275 8.04475,30.8125 8.5625,30.8125 C9.1955625,30.8125 22.6536875,30.8125 23.3125,30.8125 C23.83025,30.8125 24.25,30.39275 24.25,29.875 C24.25,29.35725 23.83025,28.9375 23.3125,28.9375 L19.8125,28.9375 L19.8125,26.4375 L28.5625,26.4375 C30.4579375,26.4375 32,24.8954375 32,23 L32,3.4375 C32,1.5420625 30.4579375,0 28.5625,0 Z M3.4375,1.875 L28.5625,1.875 C29.4240625,1.875 30.125,2.5759375 30.125,3.4375 L30.125,19.875 L1.875,19.875 L1.875,3.4375 C1.875,2.5759375 2.5759375,1.875 3.4375,1.875 Z M17.9375,28.9375 L13.9375,28.9375 L13.9375,26.4375 L17.9375,26.4375 L17.9375,28.9375 Z M28.5625,24.5625 C27.47175,24.5625 4.5458125,24.5625 3.4375,24.5625 C2.5759375,24.5625 1.875,23.8615625 1.875,23 L1.875,21.75 L30.125,21.75 L30.125,23 C30.125,23.8615625 29.4240625,24.5625 28.5625,24.5625 Z" id="Shape"></path>
                                <path d="M11.5625,18 L20.375,18 C20.89275,18 21.3125,17.58025 21.3125,17.0625 L21.3125,10.5625 C21.3125,10.04475 20.89275,9.625 20.375,9.625 L14.125,9.625 L14.125,7.46875 C14.125,6.4693125 14.9380625,5.65625 15.9375,5.65625 C16.936875,5.65625 17.75,6.4693125 17.75,7.46875 C17.75,7.9865 18.16975,8.40625 18.6875,8.40625 C19.20525,8.40625 19.625,7.9865 19.625,7.46875 C19.625,5.4354375 17.97075,3.78125 15.9375,3.78125 C13.9041875,3.78125 12.25,5.4354375 12.25,7.46875 L12.25,9.625 L11.5625,9.625 C11.04475,9.625 10.625,10.04475 10.625,10.5625 L10.625,17.0625 C10.625,17.58025 11.04475,18 11.5625,18 Z M19.4375,16.125 L12.5,16.125 L12.5,11.5 L19.4375,11.5 L19.4375,16.125 Z" id="Shape"></path>
                            </g>
                        </g>
                    </g>
                </g>
            </g>
        </g>
    </g>
</svg>