<?xml version="1.0" encoding="UTF-8"?>
<svg width="166px" height="166px" viewBox="0 0 166 166" version="1.1" xmlns="http://www.w3.org/2000/svg" xmlns:xlink="http://www.w3.org/1999/xlink">
    <!-- Generator: sketchtool 54.1 (76490) - https://sketchapp.com -->
    <title>3C66D519-0EAC-4768-941B-99C467AD3335</title>
    <desc>Created with sketchtool.</desc>
    <defs>
        <rect id="path-1" x="0" y="0" width="120" height="120" rx="60"></rect>
        <filter x="-32.9%" y="-24.6%" width="165.8%" height="165.8%" filterUnits="objectBoundingBox" id="filter-2">
            <feOffset dx="0" dy="10" in="SourceAlpha" result="shadowOffsetOuter1"></feOffset>
            <feGaussianBlur stdDeviation="11.5" in="shadowOffsetOuter1" result="shadowBlurOuter1"></feGaussianBlur>
            <feColorMatrix values="0 0 0 0 0.145098039   0 0 0 0 0.243137255   0 0 0 0 0.709803922  0 0 0 0.32 0" type="matrix" in="shadowBlurOuter1"></feColorMatrix>
        </filter>
    </defs>
    <g id="Page-1" stroke="none" stroke-width="1" fill="none" fill-rule="evenodd">
        <g id="PF-training-Page-New" transform="translate(-931.000000, -2005.000000)">
            <g id="Group-54" transform="translate(0.000000, 1690.000000)">
                <g id="Group-25" transform="translate(170.000000, 160.000000)">
                    <g id="Job-Offer" transform="translate(784.000000, 168.000000)">
                        <g id="Rectangle-Copy-8">
                            <use fill="black" fill-opacity="1" filter="url(#filter-2)" xlink:href="#path-1"></use>
                            <use fill="#FFFFFF" fill-rule="evenodd" xlink:href="#path-1"></use>
                        </g>
                        <path d="M82.59375,53.46875 C83.370375,53.46875 84,52.839125 84,52.0625 L84,42.21875 C84,39.8925312 82.1075625,38 79.78125,38 L40.21875,38 C37.8925312,38 36,39.8925312 36,42.21875 L36,78.78125 C36,81.1074688 37.8925312,83 40.21875,83 L79.78125,83 C82.1074687,83 84,81.1074688 84,78.78125 L84,68.9375 C84,68.160875 83.370375,67.53125 82.59375,67.53125 L78.375,67.53125 L78.375,53.46875 L82.59375,53.46875 Z M78.375,42.21875 C78.375,41.4433437 79.0058437,40.8125 79.78125,40.8125 C80.5566563,40.8125 81.1875,41.4433437 81.1875,42.21875 L81.1875,50.65625 L78.375,50.65625 L78.375,42.21875 Z M40.21875,80.1875 C39.4433437,80.1875 38.8125,79.5566563 38.8125,78.78125 L38.8125,42.21875 C38.8125,41.4433437 39.4433437,40.8125 40.21875,40.8125 L75.804375,40.8125 C75.6482812,41.2526563 75.5625,41.7258125 75.5625,42.21875 L75.5625,68.9375 L75.5625,78.78125 C75.5625,79.2741875 75.6482812,79.7473437 75.804375,80.1875 L40.21875,80.1875 Z M81.1875,70.34375 L81.1875,78.78125 C81.1875,79.5566563 80.5566563,80.1875 79.78125,80.1875 C79.0058437,80.1875 78.375,79.5566563 78.375,78.78125 L78.375,70.34375 L81.1875,70.34375 Z M71.25,43.625 L43.125,43.625 C42.348375,43.625 41.71875,44.254625 41.71875,45.03125 L41.71875,50.65625 C41.71875,51.432875 42.348375,52.0625 43.125,52.0625 L71.25,52.0625 C72.026625,52.0625 72.65625,51.432875 72.65625,50.65625 L72.65625,45.03125 C72.65625,44.254625 72.026625,43.625 71.25,43.625 Z M69.84375,49.25 L44.53125,49.25 L44.53125,46.4375 L69.84375,46.4375 L69.84375,49.25 Z M52.96875,59.09375 C52.96875,56.7675313 51.0762187,54.875 48.75,54.875 C46.4237813,54.875 44.53125,56.7675313 44.53125,59.09375 C44.53125,61.4199687 46.4237812,63.3125 48.75,63.3125 C51.0762187,63.3125 52.96875,61.4199687 52.96875,59.09375 Z M48.75,60.5 C47.9745937,60.5 47.34375,59.8691563 47.34375,59.09375 C47.34375,58.3183437 47.9745937,57.6875 48.75,57.6875 C49.5254063,57.6875 50.15625,58.3183437 50.15625,59.09375 C50.15625,59.8691563 49.5254063,60.5 48.75,60.5 Z M71.25,68.9375 L60,68.9375 C59.223375,68.9375 58.59375,69.567125 58.59375,70.34375 C58.59375,71.120375 59.223375,71.75 60,71.75 L71.25,71.75 C72.026625,71.75 72.65625,71.120375 72.65625,70.34375 C72.65625,69.567125 72.026625,68.9375 71.25,68.9375 Z M64.21875,66.125 C64.5786562,66.125 64.9385625,65.98775 65.2130625,65.7131562 L70.8380625,60.0881562 C71.38725,59.5389687 71.38725,58.648625 70.8380625,58.0994375 C70.2889688,57.55025 69.3985313,57.55025 68.8493438,58.0994375 L64.21875,62.7300312 L62.4005625,60.9118438 C61.8514687,60.3626563 60.9610313,60.3626563 60.4118438,60.9118438 C59.8626563,61.4610312 59.8626563,62.351375 60.4118438,62.9005625 L63.2243438,65.7130625 C63.4989375,65.98775 63.8588437,66.125 64.21875,66.125 L64.21875,66.125 Z M71.25,74.5625 L43.125,74.5625 C42.348375,74.5625 41.71875,75.192125 41.71875,75.96875 C41.71875,76.745375 42.348375,77.375 43.125,77.375 L71.25,77.375 C72.026625,77.375 72.65625,76.745375 72.65625,75.96875 C72.65625,75.192125 72.026625,74.5625 71.25,74.5625 Z M43.125,71.75 L54.375,71.75 C55.151625,71.75 55.78125,71.120375 55.78125,70.34375 L55.78125,67.53125 C55.78125,65.2050313 53.8887187,63.3125 51.5625,63.3125 L48.75,63.3125 L45.9375,63.3125 C43.6112812,63.3125 41.71875,65.2050313 41.71875,67.53125 L41.71875,70.34375 C41.71875,71.120375 42.348375,71.75 43.125,71.75 Z M44.53125,67.53125 C44.53125,66.7558437 45.1620937,66.125 45.9375,66.125 L51.5625,66.125 C52.3379063,66.125 52.96875,66.7558437 52.96875,67.53125 L52.96875,68.9375 L44.53125,68.9375 L44.53125,67.53125 Z" id="Shape" stroke="#253EB5" stroke-width="0.4" fill="#253EB5" fill-rule="nonzero"></path>
                    </g>
                </g>
            </g>
        </g>
    </g>
</svg>