<?xml version="1.0" encoding="UTF-8"?>
<svg width="56px" height="56px" viewBox="0 0 56 56" version="1.1" xmlns="http://www.w3.org/2000/svg" xmlns:xlink="http://www.w3.org/1999/xlink">
    <!-- Generator: sketchtool 54.1 (76490) - https://sketchapp.com -->
    <title>CA685A31-6F1D-4C83-9F72-ECB2F658A1FD</title>
    <desc>Created with sketchtool.</desc>
    <defs>
        <radialGradient cx="50%" cy="0%" fx="50%" fy="0%" r="100%" id="radialGradient-1">
            <stop stop-color="#19E58C" offset="0%"></stop>
            <stop stop-color="#1E3BF1" offset="100%"></stop>
        </radialGradient>
    </defs>
    <g id="Page-1" stroke="none" stroke-width="1" fill="none" fill-rule="evenodd">
        <g id="PF-training-Page-New" transform="translate(-174.000000, -1092.000000)">
            <g id="Group-14" transform="translate(0.000000, 768.000000)">
                <g id="Group-128" transform="translate(150.000000, 300.000000)">
                    <g id="Group-107">
                        <g id="HR" transform="translate(24.000000, 24.000000)">
                            <circle id="Oval" fill="url(#radialGradient-1)" cx="28" cy="28" r="28"></circle>
                            <g id="Group-31" transform="translate(16.000000, 16.000000)" fill="#FFFFFF" fill-rule="nonzero" stroke="#FFFFFF" stroke-width="0.4">
                                <g id="Group-23">
                                    <path d="M9.5,15 L3.5,15 C3.224,15 3,14.776 3,14.5 C3,14.224 3.224,14 3.5,14 L9.5,14 C9.776,14 10,14.224 10,14.5 C10,14.776 9.776,15 9.5,15 Z" id="Path"></path>
                                    <path d="M9.5,18 L3.5,18 C3.224,18 3,17.776 3,17.5 C3,17.224 3.224,17 3.5,17 L9.5,17 C9.776,17 10,17.224 10,17.5 C10,17.776 9.776,18 9.5,18 Z" id="Path"></path>
                                    <path d="M8.5,7 C7.397,7 6.5,6.103 6.5,5 C6.5,3.897 7.397,3 8.5,3 C9.603,3 10.5,3.897 10.5,5 C10.5,6.103 9.603,7 8.5,7 Z M8.5,4 C7.949,4 7.5,4.449 7.5,5 C7.5,5.551 7.949,6 8.5,6 C9.051,6 9.5,5.551 9.5,5 C9.5,4.449 9.051,4 8.5,4 Z" id="Shape"></path>
                                    <path d="M12,12 C11.724,12 11.5,11.776 11.5,11.5 L11.5,10.5 C11.5,9.673 10.827,9 10,9 L7,9 C6.173,9 5.5,9.673 5.5,10.5 L5.5,11.5 C5.5,11.776 5.276,12 5,12 C4.724,12 4.5,11.776 4.5,11.5 L4.5,10.5 C4.5,9.122 5.622,8 7,8 L10,8 C11.378,8 12.5,9.122 12.5,10.5 L12.5,11.5 C12.5,11.776 12.276,12 12,12 Z" id="Path"></path>
                                    <path d="M11.53,21 L2.5,21 C1.122,21 0,19.878 0,18.5 L0,2.5 C0,1.122 1.122,0 2.5,0 L14.5,0 C15.878,0 17,1.122 17,2.5 L17,10.52 C17,10.796 16.776,11.02 16.5,11.02 C16.224,11.02 16,10.796 16,10.52 L16,2.5 C16,1.673 15.327,1 14.5,1 L2.5,1 C1.673,1 1,1.673 1,2.5 L1,18.5 C1,19.327 1.673,20 2.5,20 L11.53,20 C11.806,20 12.03,20.224 12.03,20.5 C12.03,20.776 11.806,21 11.53,21 Z" id="Path"></path>
                                    <path d="M17,22 C14.243,22 12,19.757 12,17 C12,14.243 14.243,12 17,12 C19.757,12 22,14.243 22,17 C22,19.757 19.757,22 17,22 Z M17,13 C14.794,13 13,14.794 13,17 C13,19.206 14.794,21 17,21 C19.206,21 21,19.206 21,17 C21,14.794 19.206,13 17,13 Z" id="Shape"></path>
                                    <path d="M23.5,24 C23.372,24 23.244,23.951 23.146,23.854 L19.828,20.536 C19.633,20.341 19.633,20.024 19.828,19.829 C20.023,19.634 20.34,19.634 20.535,19.829 L23.853,23.147 C24.048,23.342 24.048,23.659 23.853,23.854 C23.756,23.951 23.628,24 23.5,24 Z" id="Path"></path>
                                </g>
                            </g>
                        </g>
                    </g>
                </g>
            </g>
        </g>
    </g>
</svg>