<?xml version="1.0" encoding="UTF-8"?>
<svg width="166px" height="166px" viewBox="0 0 166 166" version="1.1" xmlns="http://www.w3.org/2000/svg" xmlns:xlink="http://www.w3.org/1999/xlink">
    <!-- Generator: sketchtool 54.1 (76490) - https://sketchapp.com -->
    <title>6A24BA28-9BC7-4773-9327-4898D96A2125</title>
    <desc>Created with sketchtool.</desc>
    <defs>
        <rect id="path-1" x="0" y="0" width="120" height="120" rx="60"></rect>
        <filter x="-32.9%" y="-24.6%" width="165.8%" height="165.8%" filterUnits="objectBoundingBox" id="filter-2">
            <feOffset dx="0" dy="10" in="SourceAlpha" result="shadowOffsetOuter1"></feOffset>
            <feGaussianBlur stdDeviation="11.5" in="shadowOffsetOuter1" result="shadowBlurOuter1"></feGaussianBlur>
            <feColorMatrix values="0 0 0 0 0.145098039   0 0 0 0 0.243137255   0 0 0 0 0.709803922  0 0 0 0.32 0" type="matrix" in="shadowBlurOuter1"></feColorMatrix>
        </filter>
    </defs>
    <g id="Page-1" stroke="none" stroke-width="1" fill="none" fill-rule="evenodd">
        <g id="PF-training-Page-New" transform="translate(-539.000000, -2005.000000)">
            <g id="Group-54" transform="translate(0.000000, 1690.000000)">
                <g id="Group-25" transform="translate(170.000000, 160.000000)">
                    <g id="Initial-Assessment" transform="translate(392.000000, 168.000000)">
                        <g id="Rectangle-Copy-8">
                            <use fill="black" fill-opacity="1" filter="url(#filter-2)" xlink:href="#path-1"></use>
                            <use fill="#FFFFFF" fill-rule="evenodd" xlink:href="#path-1"></use>
                        </g>
                        <polygon id="Path" stroke="#253EB5" stroke-width="0.6" fill="#253EB5" fill-rule="nonzero" points="45.09375 54.5112813 43.6505625 53.0681875 41.6619375 55.0569063 45.09375 58.4888125 50.8693125 52.7131563 48.8806875 50.7244375"></polygon>
                        <polygon id="Path" stroke="#253EB5" stroke-width="0.6" fill="#253EB5" fill-rule="nonzero" points="45.09375 64.2612812 43.6505625 62.8181875 41.6619375 64.8069062 45.09375 68.2388125 50.8693125 62.4631563 48.8806875 60.4744375"></polygon>
                        <polygon id="Path" stroke="#253EB5" stroke-width="0.6" fill="#253EB5" fill-rule="nonzero" points="42.1875 72.71875 50.34375 72.71875 50.34375 75.53125 42.1875 75.53125"></polygon>
                        <polygon id="Path" stroke="#253EB5" stroke-width="0.6" fill="#253EB5" fill-rule="nonzero" points="53.90625 52.75 65.4375 52.75 65.4375 55.5625 53.90625 55.5625"></polygon>
                        <polygon id="Path" stroke="#253EB5" stroke-width="0.6" fill="#253EB5" fill-rule="nonzero" points="53.90625 62.125 65.4375 62.125 65.4375 64.9375 53.90625 64.9375"></polygon>
                        <path d="M77.2707187,59.9306875 L73.21875,64.00525 L73.21875,48.1167813 L62.5690312,37 L36,37 L36,83.59375 L67.4290312,83.59375 L83.9937187,66.9177812 L77.2707187,59.9306875 Z M63.375,41.9069688 L68.1044062,46.84375 L63.375,46.84375 L63.375,41.9069688 Z M60.5625,80.78125 L38.8125,80.78125 L38.8125,39.8125 L60.5625,39.8125 L60.5625,49.65625 L70.40625,49.65625 L70.40625,66.8335 L60.5625,76.732375 L60.5625,80.78125 Z M66.2584687,80.78125 L63.375,80.78125 L63.375,77.892625 L72.745875,68.47 L75.62625,71.350375 L66.2584687,80.78125 Z M74.7286875,66.4754688 L77.2375312,63.9525625 L80.0605312,66.8864688 L77.6083125,69.3551875 L74.7286875,66.4754688 Z" id="Shape" stroke="#253EB5" stroke-width="0.6" fill="#253EB5" fill-rule="nonzero"></path>
                    </g>
                </g>
            </g>
        </g>
    </g>
</svg>