<?xml version="1.0" encoding="UTF-8"?>
<svg width="166px" height="166px" viewBox="0 0 166 166" version="1.1" xmlns="http://www.w3.org/2000/svg" xmlns:xlink="http://www.w3.org/1999/xlink">
    <!-- Generator: sketchtool 54.1 (76490) - https://sketchapp.com -->
    <title>57E1AC0D-C52A-4BB9-9894-F590EB5D59FC</title>
    <desc>Created with sketchtool.</desc>
    <defs>
        <rect id="path-1" x="0" y="0" width="120" height="120" rx="60"></rect>
        <filter x="-32.9%" y="-24.6%" width="165.8%" height="165.8%" filterUnits="objectBoundingBox" id="filter-2">
            <feOffset dx="0" dy="10" in="SourceAlpha" result="shadowOffsetOuter1"></feOffset>
            <feGaussianBlur stdDeviation="11.5" in="shadowOffsetOuter1" result="shadowBlurOuter1"></feGaussianBlur>
            <feColorMatrix values="0 0 0 0 0.145098039   0 0 0 0 0.243137255   0 0 0 0 0.709803922  0 0 0 0.32 0" type="matrix" in="shadowBlurOuter1"></feColorMatrix>
        </filter>
    </defs>
    <g id="Page-1" stroke="none" stroke-width="1" fill="none" fill-rule="evenodd">
        <g id="PF-training-Page-New" transform="translate(-735.000000, -2005.000000)">
            <g id="Group-54" transform="translate(0.000000, 1690.000000)">
                <g id="Group-25" transform="translate(170.000000, 160.000000)">
                    <g id="Interview-Process" transform="translate(588.000000, 168.000000)">
                        <g id="Rectangle-Copy-9">
                            <use fill="black" fill-opacity="1" filter="url(#filter-2)" xlink:href="#path-1"></use>
                            <use fill="#FFFFFF" fill-rule="evenodd" xlink:href="#path-1"></use>
                        </g>
                        <path d="M73.4560547,52.4688721 C73.4560547,53.2456055 72.8265381,53.8751221 72.0498047,53.8751221 C71.2734375,53.8751221 70.6435547,53.2456055 70.6435547,52.4688721 C70.6435547,51.6921386 71.2734375,51.0626221 72.0498047,51.0626221 C72.8265381,51.0626221 73.4560547,51.6921386 73.4560547,52.4688721 Z" id="Path" stroke="#253EB5" stroke-width="0.6" fill="#253EB5" fill-rule="nonzero"></path>
                        <path d="M72.0483398,40.5186768 C69.6126709,40.5186768 67.6311036,42.5002442 67.6311036,44.9359131 L67.6311036,44.9373779 C67.6311036,45.7141114 68.2609864,46.3428955 69.0373536,46.3428955 C69.8140869,46.3428955 70.4436036,45.7126464 70.4436036,44.9359131 C70.4436036,44.0511474 71.1635742,43.3311768 72.0498047,43.3311768 C72.4790039,43.3311768 72.8818359,43.498169 73.1861572,43.8028565 C73.4893799,44.1053467 73.6560058,44.5085449 73.6560058,44.9373779 C73.6560058,45.8232422 72.935669,46.5435791 72.0498047,46.5435791 C71.2734375,46.5435791 70.6435547,47.1734619 70.6435547,47.9498291 C70.6435547,48.7265625 71.2734375,49.3560791 72.0498047,49.3560791 C74.4865723,49.3560791 76.4685058,47.3737793 76.4685058,44.9373779 C76.4685058,43.7563477 76.0085449,42.6467286 75.1746826,41.8139648 C74.3408203,40.9786377 73.2312011,40.5186768 72.0483398,40.5186768 L72.0483398,40.5186768 Z" id="Path" stroke="#253EB5" stroke-width="0.6" fill="#253EB5" fill-rule="nonzero"></path>
                        <path d="M37.40625,58.3937989 L52.4688721,58.3937989 C53.2452393,58.3937989 53.8751221,57.7642823 53.8751221,56.9875489 L53.8751221,53.9750977 C53.8751221,49.8486328 51.2614746,47.2188721 49.1491699,46.0872803 C50.2075195,45.0164795 50.8623047,43.5461426 50.8623047,41.9249268 C50.8623047,38.6579589 48.2047119,36 44.9373779,36 C41.6704102,36 39.0124511,38.6579589 39.0124511,41.9249268 C39.0124511,43.5461426 39.6672364,45.0164795 40.7255859,46.0872803 C38.6176758,47.2166748 36,49.8479004 36,53.9750977 L36,56.9875489 C36,57.7642823 36.6295166,58.3937989 37.40625,58.3937989 Z M41.8249511,41.9249268 C41.8249511,40.2088623 43.2213135,38.8125 44.9373779,38.8125 C46.6538086,38.8125 48.0498047,40.2088623 48.0498047,41.9249268 C48.0498047,43.6413574 46.6538086,45.0373536 44.9373779,45.0373536 C43.2213135,45.0373536 41.8249511,43.6413574 41.8249511,41.9249268 Z M38.8125,53.9750977 C38.8125,50.5920411 41.5495605,47.8498536 44.9373779,47.8498536 C48.3204346,47.8498536 51.0622558,50.5872803 51.0622558,53.9750977 L51.0622558,55.5812989 L38.8125,55.5812989 L38.8125,53.9750977 Z" id="Shape" stroke="#253EB5" stroke-width="0.6" fill="#253EB5" fill-rule="nonzero"></path>
                        <path d="M79.2744141,71.6934815 C80.3327636,70.6226807 80.9875489,69.1523438 80.9875489,67.5314942 C80.9875489,64.2641602 78.3295898,61.6062011 75.0626221,61.6062011 C71.7956542,61.6062011 69.1376953,64.2641602 69.1376953,67.5314942 C69.1376953,69.1523438 69.7924805,70.6226807 70.8508301,71.6934815 C68.7425537,72.822876 66.1248779,75.4541016 66.1248779,79.5812989 L66.1248779,82.59375 C66.1248779,83.3704834 66.7547607,84 67.5311279,84 L82.59375,84 C83.3704834,84 84,83.3704834 84,82.59375 L84,79.5812989 C84,75.4548339 81.3863526,72.8250732 79.2744141,71.6934815 L79.2744141,71.6934815 Z M71.9501953,67.5311279 C71.9501953,65.8150635 73.3461914,64.4187011 75.0626221,64.4187011 C76.7786865,64.4187011 78.1750489,65.8150635 78.1750489,67.5311279 C78.1750489,69.2475586 76.7786865,70.6435547 75.0626221,70.6435547 C73.3461914,70.6435547 71.9501953,69.2475586 71.9501953,67.5311279 Z M81.1875,81.1875 L68.9373779,81.1875 L68.9373779,79.5812989 C68.9373779,76.1982422 71.6744385,73.4564209 75.0622558,73.4564209 C78.4453125,73.4564209 81.1875,76.1934815 81.1875,79.5812989 L81.1875,81.1875 Z" id="Shape" stroke="#253EB5" stroke-width="0.6" fill="#253EB5" fill-rule="nonzero"></path>
                        <path d="M78.0750732,36 L66.0249023,36 C62.7524414,36 60.0999756,38.6477051 60.0999756,41.9249268 L60.0999756,50.4938964 L55.8625489,56.1437989 C55.1689453,57.0688477 55.829956,58.3937989 56.9875489,58.3937989 L78.0750732,58.3937989 C81.3420411,58.3937989 84,55.7358398 84,52.4688721 L84,41.9249268 C84,38.6579589 81.3420411,36 78.0750732,36 L78.0750732,36 Z M81.1875,52.4688721 C81.1875,54.1849365 79.7911377,55.5812989 78.0750732,55.5812989 L59.8000489,55.5812989 L62.6312256,51.8063964 C62.8139648,51.5628662 62.9124756,51.2669678 62.9124756,50.9626464 L62.9124756,41.9249268 C62.9124756,40.2044678 64.3037109,38.8125 66.0249023,38.8125 L78.0750732,38.8125 C79.7911377,38.8125 81.1875,40.2088623 81.1875,41.9249268 L81.1875,52.4688721 Z" id="Shape" stroke="#253EB5" stroke-width="0.6" fill="#253EB5" fill-rule="nonzero"></path>
                        <path d="M63.0124511,61.6062011 L41.9249268,61.6062011 C38.6579589,61.6062011 36,64.2641602 36,67.5311279 L36,78.0750732 C36,81.3420411 38.6579589,84 41.9249268,84 L53.9750977,84 C57.2475586,84 59.9000244,81.3522949 59.9000244,78.0750732 L59.9000244,69.5061036 L64.1374511,63.8562011 C64.4571533,63.4302979 64.5084229,62.8601074 64.2703857,62.383667 C64.0319824,61.9072266 63.5452881,61.6062011 63.0124511,61.6062011 L63.0124511,61.6062011 Z M57.3687744,68.1936036 C57.1860352,68.4371338 57.0875244,68.7330323 57.0875244,69.0373536 L57.0875244,78.0750732 C57.0875244,78.9063721 56.763794,79.6882324 56.1767578,80.2756348 C55.5878906,80.8637695 54.8063964,81.1875 53.9750977,81.1875 L41.9249268,81.1875 C40.2088623,81.1875 38.8125,79.7911377 38.8125,78.0750732 L38.8125,67.5311279 C38.8125,65.8150635 40.2088623,64.4187011 41.9249268,64.4187011 L60.1999511,64.4187011 L57.3687744,68.1936036 Z" id="Shape" stroke="#253EB5" stroke-width="0.6" fill="#253EB5" fill-rule="nonzero"></path>
                        <path d="M43.4311523,71.1968994 L52.4688721,71.1968994 C53.2452393,71.1968994 53.8751221,70.5673828 53.8751221,69.7906494 C53.8751221,69.0139161 53.2452393,68.3843994 52.4688721,68.3843994 L43.4311523,68.3843994 C42.6547852,68.3843994 42.0249023,69.0139161 42.0249023,69.7906494 C42.0249023,70.5673828 42.654419,71.1968994 43.4311523,71.1968994 Z" id="Path" stroke="#253EB5" stroke-width="0.6" fill="#253EB5" fill-rule="nonzero"></path>
                        <path d="M43.4311523,77.2218018 L47.9501953,77.2218018 C48.7265625,77.2218018 49.3564453,76.5922852 49.3564453,75.8155518 C49.3564453,75.0388183 48.7265625,74.4093018 47.9501953,74.4093018 L43.4311523,74.4093018 C42.6547852,74.4093018 42.0249023,75.0388183 42.0249023,75.8155518 C42.0249023,76.5922852 42.654419,77.2218018 43.4311523,77.2218018 Z" id="Path" stroke="#253EB5" stroke-width="0.6" fill="#253EB5" fill-rule="nonzero"></path>
                    </g>
                </g>
            </g>
        </g>
    </g>
</svg>