<?xml version="1.0" encoding="UTF-8"?>
<svg width="56px" height="56px" viewBox="0 0 56 56" version="1.1" xmlns="http://www.w3.org/2000/svg" xmlns:xlink="http://www.w3.org/1999/xlink">
    <!-- Generator: sketchtool 54.1 (76490) - https://sketchapp.com -->
    <title>B93ACEA9-3B6A-4A30-86C1-39BDA45D6269</title>
    <desc>Created with sketchtool.</desc>
    <defs>
        <linearGradient x1="50%" y1="0%" x2="50%" y2="100%" id="linearGradient-1">
            <stop stop-color="#19E58C" offset="0%"></stop>
            <stop stop-color="#1E3BF1" offset="100%"></stop>
        </linearGradient>
    </defs>
    <g id="Page-1" stroke="none" stroke-width="1" fill="none" fill-rule="evenodd">
        <g id="PF-training-Page-New" transform="translate(-1050.000000, -1092.000000)">
            <g id="Group-14" transform="translate(0.000000, 768.000000)">
                <g id="Group-128" transform="translate(150.000000, 300.000000)">
                    <g id="Group-122" transform="translate(876.000000, 0.000000)">
                        <g id="Marketing" transform="translate(24.000000, 24.000000)">
                            <circle id="Oval" fill="url(#linearGradient-1)" cx="28" cy="28" r="28"></circle>
                            <g id="Group-62" transform="translate(12.500000, 12.000000)" fill="#FFFFFF" fill-rule="nonzero">
                                <path d="M29.987625,7.5 L25.145875,7.5 C24.628125,7.5 24.208375,7.91975 24.208375,8.4375 L24.208375,15.0625 L20.3041875,15.0625 C19.7864375,15.0625 19.3666875,15.48225 19.3666875,16 L19.3666875,20.3138125 L16.4000625,20.3138125 L16.4000625,15.9375 C16.4000625,15.41975 15.9803125,15 15.4625625,15 L10.620875,15 C10.103125,15 9.683375,15.41975 9.683375,15.9375 L9.683375,20.3138125 L5.7791875,20.3138125 C5.2614375,20.3138125 4.8416875,20.7335625 4.8416875,21.2513125 L4.8416875,25.096375 L1.875,25.096375 L1.875,5.625 C1.875,5.10725 1.45525,4.6875 0.9375,4.6875 C0.41975,4.6875 7.85149723e-13,5.10725 7.85149723e-13,5.625 L7.85149723e-13,31.0625 C7.85149723e-13,31.58025 0.41975,32 0.9375,32 L29.987625,32 C30.505375,32 30.925125,31.58025 30.925125,31.0625 L30.925125,8.4375 C30.925125,7.91975 30.505375,7.5 29.987625,7.5 Z M1.875,26.971375 L4.8416875,26.971375 L4.8416875,30.125 L1.875,30.125 L1.875,26.971375 Z M6.7166875,22.1888125 L9.683375,22.1888125 L9.683375,30.125 L6.7166875,30.125 C6.7166875,30.0393125 6.7166875,22.332 6.7166875,22.1888125 Z M11.558375,16.875 L14.5250625,16.875 L14.5250625,30.125 L11.558375,30.125 C11.558375,29.5499375 11.558375,17.61475 11.558375,16.875 L11.558375,16.875 Z M16.4000625,22.1888125 L19.36675,22.1888125 L19.36675,30.125 L16.4000625,30.125 L16.4000625,22.1888125 Z M21.24175,16.9375 L24.2084375,16.9375 L24.2084375,30.125 L21.24175,30.125 C21.24175,29.6855625 21.24175,17.3753125 21.24175,16.9375 Z M26.083375,30.125 C26.083375,29.4438125 26.083375,9.6429375 26.083375,9.375 L29.050125,9.375 L29.050125,30.125 L26.083375,30.125 Z" id="Shape"></path>
                                <path d="M5.3176875,13.7390625 L11.025125,8.031625 L16.4840625,12.3744375 C16.8571875,12.6713125 17.3936875,12.6408125 17.730625,12.3036875 L26.8335,3.2008125 L26.8335,4.0039375 C26.8335,4.5216875 27.25325,4.9414375 27.771,4.9414375 C28.28875,4.9414375 28.7085,4.5216875 28.7085,4.0039375 L28.7085,0.9375 C28.7085,0.4210625 28.2906875,0.0045625 27.779125,0.0004375 C27.776375,0.0004375 27.77375,1.24344979e-14 27.771,1.24344979e-14 L24.7045625,1.24344979e-14 C24.1868125,1.24344979e-14 23.7670625,0.41975 23.7670625,0.9375 C23.7670625,1.45525 24.1868125,1.875 24.7045625,1.875 L25.5076875,1.875 L16.9965625,10.386125 L11.537625,6.04325 C11.1645,5.7464375 10.628125,5.7769375 10.2910625,6.114 L3.991875,12.41325 C3.62575,12.779375 3.62575,13.3729375 3.991875,13.7390625 C4.3579375,14.105125 4.951625,14.1051875 5.3176875,13.7390625 Z" id="Path"></path>
                            </g>
                        </g>
                    </g>
                </g>
            </g>
        </g>
    </g>
</svg>