<?xml version="1.0" encoding="UTF-8"?>
<svg width="166px" height="166px" viewBox="0 0 166 166" version="1.1" xmlns="http://www.w3.org/2000/svg" xmlns:xlink="http://www.w3.org/1999/xlink">
    <!-- Generator: sketchtool 54.1 (76490) - https://sketchapp.com -->
    <title>E077C47E-71DC-4EF6-AC91-30440133964C</title>
    <desc>Created with sketchtool.</desc>
    <defs>
        <rect id="path-1" x="0" y="0" width="120" height="120" rx="60"></rect>
        <filter x="-32.9%" y="-24.6%" width="165.8%" height="165.8%" filterUnits="objectBoundingBox" id="filter-2">
            <feOffset dx="0" dy="10" in="SourceAlpha" result="shadowOffsetOuter1"></feOffset>
            <feGaussianBlur stdDeviation="11.5" in="shadowOffsetOuter1" result="shadowBlurOuter1"></feGaussianBlur>
            <feColorMatrix values="0 0 0 0 0.145098039   0 0 0 0 0.243137255   0 0 0 0 0.709803922  0 0 0 0.32 0" type="matrix" in="shadowBlurOuter1"></feColorMatrix>
        </filter>
    </defs>
    <g id="Page-1" stroke="none" stroke-width="1" fill="none" fill-rule="evenodd">
        <g id="PF-training-Page-New" transform="translate(-1127.000000, -2005.000000)">
            <g id="Group-54" transform="translate(0.000000, 1690.000000)">
                <g id="Group-25" transform="translate(170.000000, 160.000000)">
                    <g id="Onboarding" transform="translate(980.000000, 168.000000)">
                        <g id="Rectangle-Copy-8">
                            <use fill="black" fill-opacity="1" filter="url(#filter-2)" xlink:href="#path-1"></use>
                            <use fill="#FFFFFF" fill-rule="evenodd" xlink:href="#path-1"></use>
                        </g>
                        <g id="Group-8" transform="translate(36.000000, 36.000000)" fill="#253EB5" fill-rule="nonzero" stroke="#253EB5">
                            <path d="M34.3148936,2.9412766 C33.954097,2.9412766 33.6089872,2.74323064 33.4364323,2.4000817 C33.1932868,1.91575149 33.3913328,1.32749617 33.875663,1.08435064 L35.836514,0.103925106 C36.3208443,-0.135298723 36.9090996,0.0588255319 37.1522451,0.543155745 C37.3953906,1.02748596 37.1973447,1.61574128 36.7130145,1.85888681 L34.7521634,2.83931234 C34.612943,2.90794213 34.4639183,2.9412766 34.3148936,2.9412766 Z" id="Path"></path>
                            <path d="M36.2757447,9.80425532 C36.1286809,9.80425532 35.9796562,9.77092085 35.8384749,9.70033021 L33.8776238,8.71990468 C33.3932936,8.47675915 33.1972085,7.88850383 33.4383932,7.40417362 C33.6815387,6.91788255 34.2678332,6.7237583 34.7541243,6.96494298 L36.7149753,7.94536851 C37.1993055,8.18851404 37.3953906,8.77676936 37.154206,9.26109957 C36.9796902,9.60620936 36.6345804,9.80425532 36.2757447,9.80425532 Z" id="Path"></path>
                            <path d="M16.667234,2.9412766 C16.5201702,2.9412766 16.3711455,2.90794213 16.2299643,2.83735149 L14.2691132,1.85692596 C13.7828221,1.61574128 13.586737,1.02552511 13.8298826,0.541194894 C14.0710672,0.0588255319 14.6612834,-0.135298723 15.1456136,0.103925106 L17.1064647,1.08435064 C17.5907949,1.32749617 17.78688,1.91575149 17.5456953,2.4000817 C17.3711796,2.74323064 17.0260698,2.9412766 16.667234,2.9412766 Z" id="Path"></path>
                            <path d="M14.706383,9.80425532 C14.3455864,9.80425532 14.0004766,9.60620936 13.8279217,9.26306043 C13.586737,8.77873021 13.7828221,8.18851404 14.2671523,7.94732936 L16.2280034,6.96690383 C16.7142945,6.7237583 17.3005889,6.9198434 17.5437345,7.40613447 C17.78688,7.89046468 17.588834,8.47872 17.1045038,8.72186553 L15.1436528,9.70229106 C15.0044323,9.77092085 14.8554077,9.80425532 14.706383,9.80425532 L14.706383,9.80425532 Z" id="Path"></path>
                            <path d="M18.1182638,47.0604255 C17.7064851,47.0604255 17.3221583,46.7996323 17.1868596,46.3858928 L16.7554723,45.0721226 C15.7083779,41.8857396 16.5280136,38.4385634 18.8967217,36.0718162 L21.8379983,33.1305396 C22.2184034,32.7462128 22.8497974,32.7364085 23.2341243,33.1207353 C23.6164902,33.5031013 23.6262945,34.1148868 23.2439285,34.4972528 L20.2830434,37.4581379 C18.4418043,39.2974162 17.8045277,41.9818213 18.6182809,44.4583762 L19.0496681,45.7721464 C19.2183013,46.2858894 18.9378996,46.8408102 18.4241566,47.0094434 C18.3241532,47.0447387 18.2202281,47.0604255 18.1182638,47.0604255 Z" id="Path"></path>
                            <path d="M46.1388255,47.0604255 C46.1388255,47.0604255 46.1368647,47.0604255 46.1349038,47.0604255 C45.5937089,47.0584647 45.1564391,46.6172732 45.1584,46.0760783 L45.1780085,37.2953872 C45.1780085,36.1816238 44.2799387,35.2757106 43.1779404,35.2757106 C42.064177,35.2757106 41.1582638,36.1816238 41.1582638,37.2953872 C41.1582638,37.8365821 40.7190332,38.2758128 40.1778383,38.2758128 C39.6366434,38.2758128 39.1974128,37.8365821 39.1974128,37.2953872 C39.1974128,35.1011949 40.9837481,33.3148596 43.1779404,33.3148596 C45.3623285,33.3148596 47.1388596,35.1011949 47.1388596,37.2953872 L47.1192511,46.0839217 C47.1172902,46.6231557 46.6780596,47.0604255 46.1388255,47.0604255 L46.1388255,47.0604255 Z" id="Path"></path>
                            <path d="M40.1778383,41.1386553 C39.6366434,41.1386553 39.1974128,40.6994247 39.1974128,40.1582298 L39.1974128,33.2952511 C39.1974128,32.2148221 38.3169906,31.3344 37.2365617,31.3344 C36.1561328,31.3344 35.2757106,32.2148221 35.2757106,33.2952511 C35.2757106,33.836446 34.83648,34.2756766 34.2952851,34.2756766 C33.7540902,34.2756766 33.3148596,33.836446 33.3148596,33.2952511 C33.3148596,31.1324323 35.073743,29.3735489 37.2365617,29.3735489 C39.3993804,29.3735489 41.1582638,31.1324323 41.1582638,33.2952511 L41.1582638,40.1582298 C41.1582638,40.6994247 40.720994,41.1386553 40.1778383,41.1386553 Z" id="Path"></path>
                            <path d="M34.2952851,39.1778043 C33.7540902,39.1778043 33.3148596,38.7385736 33.3148596,38.1973787 L33.3148596,31.3344 C33.3148596,30.2539711 32.4344374,29.3735489 31.3540085,29.3735489 C30.2735796,29.3735489 29.3931574,30.2539711 29.3931574,31.3344 C29.3931574,31.8755949 28.9539268,32.3148255 28.4127319,32.3148255 C27.871537,32.3148255 27.4323064,31.8755949 27.4323064,31.3344 C27.4323064,29.1715813 29.1911898,27.4126979 31.3540085,27.4126979 C33.5168272,27.4126979 35.2757106,29.1715813 35.2757106,31.3344 L35.2757106,38.1973787 C35.2757106,38.7385736 34.8384409,39.1778043 34.2952851,39.1778043 Z" id="Path"></path>
                            <path d="M22.5301787,43.0995064 C21.9889838,43.0995064 21.5497532,42.6602757 21.5497532,42.1190809 L21.5497532,19.6085106 C21.5497532,17.4456919 23.3086366,15.6868085 25.4714553,15.6868085 C27.6421174,15.6868085 29.3931574,17.4378485 29.3931574,19.5889021 L29.3931574,38.1973787 C29.3931574,38.7385736 28.9539268,39.1778043 28.4127319,39.1778043 C27.871537,39.1778043 27.4323064,38.7385736 27.4323064,38.1973787 L27.4323064,19.5889021 C27.4323064,18.5182774 26.5616885,17.6476596 25.4910638,17.6476596 C24.3910264,17.6476596 23.5106043,18.5280817 23.5106043,19.6085106 L23.5106043,42.1190809 C23.5106043,42.6602757 23.0733345,43.0995064 22.5301787,43.0995064 Z" id="Path"></path>
                            <path d="M7.84340426,23.5302128 C5.68058553,23.5302128 3.92170213,21.7713294 3.92170213,19.6085106 C3.92170213,17.4456919 5.68058553,15.6868085 7.84340426,15.6868085 C10.006223,15.6868085 11.7651064,17.4456919 11.7651064,19.6085106 C11.7651064,21.7713294 10.006223,23.5302128 7.84340426,23.5302128 Z M7.84340426,17.6476596 C6.76297532,17.6476596 5.88255319,18.5280817 5.88255319,19.6085106 C5.88255319,20.6889396 6.76297532,21.5693617 7.84340426,21.5693617 C8.92383319,21.5693617 9.80425532,20.6889396 9.80425532,19.6085106 C9.80425532,18.5280817 8.92383319,17.6476596 7.84340426,17.6476596 Z" id="Shape"></path>
                            <path d="M14.706383,33.3344681 C14.1651881,33.3344681 13.7259574,32.8952374 13.7259574,32.3540426 L13.7259574,30.3931915 C13.7259574,28.7715677 12.4063047,27.4519149 10.7846809,27.4519149 L4.90212766,27.4519149 C3.28050383,27.4519149 1.96085106,28.7715677 1.96085106,30.3931915 L1.96085106,32.3540426 C1.96085106,32.8952374 1.52162043,33.3344681 0.980425532,33.3344681 C0.439230638,33.3344681 7.60280727e-13,32.8952374 7.60280727e-13,32.3540426 L7.60280727e-13,30.3931915 C7.60280727e-13,27.6911387 2.20007489,25.4910638 4.90212766,25.4910638 L10.7846809,25.4910638 C13.4867336,25.4910638 15.6868085,27.6911387 15.6868085,30.3931915 L15.6868085,32.3540426 C15.6868085,32.8952374 15.2475779,33.3344681 14.706383,33.3344681 Z" id="Path"></path>
                            <path d="M25.4910638,7.84340426 C23.3282451,7.84340426 21.5693617,6.08452085 21.5693617,3.92170213 C21.5693617,1.7588834 23.3282451,-7.4162898e-14 25.4910638,-7.4162898e-14 C27.6538826,-7.4162898e-14 29.412766,1.7588834 29.412766,3.92170213 C29.412766,6.08452085 27.6538826,7.84340426 25.4910638,7.84340426 Z M25.4910638,1.96085106 C24.4106349,1.96085106 23.5302128,2.84127319 23.5302128,3.92170213 C23.5302128,5.00213106 24.4106349,5.88255319 25.4910638,5.88255319 C26.5714928,5.88255319 27.4519149,5.00213106 27.4519149,3.92170213 C27.4519149,2.84127319 26.5714928,1.96085106 25.4910638,1.96085106 Z" id="Shape"></path>
                            <path d="M32.3540426,17.6476596 C31.8128477,17.6476596 31.373617,17.2084289 31.373617,16.667234 L31.373617,14.706383 C31.373617,13.0847591 30.0539643,11.7651064 28.4323404,11.7651064 L22.5497872,11.7651064 C20.9281634,11.7651064 19.6085106,13.0847591 19.6085106,14.706383 L19.6085106,16.667234 C19.6085106,17.2084289 19.16928,17.6476596 18.6280851,17.6476596 C18.0868902,17.6476596 17.6476596,17.2084289 17.6476596,16.667234 L17.6476596,14.706383 C17.6476596,12.0043302 19.8477345,9.80425532 22.5497872,9.80425532 L28.4323404,9.80425532 C31.1343932,9.80425532 33.3344681,12.0043302 33.3344681,14.706383 L33.3344681,16.667234 C33.3344681,17.2084289 32.8952374,17.6476596 32.3540426,17.6476596 Z" id="Path"></path>
                        </g>
                    </g>
                </g>
            </g>
        </g>
    </g>
</svg>